<?xml version="1.0" standalone="no"?>
<!DOCTYPE svg PUBLIC "-//W3C//DTD SVG 20010904//EN"
 "http://www.w3.org/TR/2001/REC-SVG-20010904/DTD/svg10.dtd">
<svg version="1.0" xmlns="http://www.w3.org/2000/svg"
 width="784.000000pt" height="1168.000000pt" viewBox="0 0 784.000000 1168.000000"
 preserveAspectRatio="xMidYMid meet">

<g transform="translate(0.000000,1168.000000) scale(0.100000,-0.100000)"
fill="#000000" stroke="none">
<path d="M2400 10865 c-326 -66 -570 -295 -662 -620 l-22 -80 -4 -2235 c-2
-1612 0 -2263 8 -2335 12 -106 47 -229 87 -310 169 -337 560 -513 943 -426
107 24 186 59 325 141 44 26 145 84 225 130 80 46 235 137 345 201 110 64 232
134 270 156 39 22 135 78 216 126 80 47 213 124 297 171 84 47 220 125 304
172 366 207 454 258 471 272 16 14 27 6 140 -104 67 -66 164 -160 215 -209 72
-70 91 -93 86 -108 -29 -91 29 -177 118 -177 69 0 128 60 128 131 0 72 -87
140 -155 120 -27 -7 -35 -3 -90 48 -130 120 -357 342 -354 346 6 5 270 158
524 304 127 72 307 176 400 230 94 54 171 98 173 96 7 -7 -51 -247 -83 -342
-55 -163 -176 -386 -222 -408 -40 -20 -53 -38 -53 -71 0 -69 68 -97 117 -48
21 21 24 32 20 60 -5 28 1 44 32 92 118 177 207 412 247 655 l18 108 53 32
c198 119 239 146 299 198 102 89 160 164 214 274 65 133 84 225 84 390 -1 156
-22 245 -89 380 -86 174 -188 272 -418 403 l-145 82 -7 88 c-8 105 -37 256
-65 336 -14 43 -17 63 -9 72 14 17 14 65 0 92 -6 12 -23 25 -38 28 -88 22
-141 -90 -63 -134 22 -13 33 -31 49 -87 23 -78 61 -283 61 -327 0 -31 -7 -34
-35 -14 -11 7 -114 69 -230 136 -216 126 -651 385 -1940 1155 -1332 796 -1295
776 -1458 809 -90 19 -236 19 -327 1z m235 -336 c78 -14 141 -43 303 -140 289
-174 1049 -633 1097 -663 l50 -31 -100 -6 c-246 -16 -467 -75 -703 -189 -675
-326 -1069 -897 -1123 -1628 -29 -399 69 -788 281 -1112 296 -452 818 -791
1369 -890 63 -11 116 -22 118 -24 2 -2 -94 -60 -214 -129 -339 -194 -515 -296
-683 -396 -234 -139 -320 -179 -417 -193 -161 -23 -316 33 -444 161 -79 79
-125 157 -151 256 -17 67 -14 4501 4 4580 32 144 154 295 290 360 112 53 205
66 323 44z m1926 -1136 c69 -32 166 -92 258 -162 81 -61 221 -191 221 -205 0
-18 -203 -166 -228 -166 -4 0 -25 35 -46 78 -90 183 -192 331 -309 450 l-71
72 54 -18 c30 -11 85 -33 121 -49z m-858 -16 c-39 -41 -88 -98 -111 -128 -49
-66 -177 -288 -193 -336 -7 -22 -16 -33 -24 -29 -7 2 -59 37 -114 77 l-102 72
31 32 c31 32 40 52 18 39 -9 -5 -9 -2 1 9 15 18 26 23 16 7 -10 -17 12 -11 26
7 12 14 12 16 0 8 -10 -5 -12 -4 -7 4 4 6 11 9 15 7 4 -3 23 11 42 32 23 25
26 31 9 17 -14 -11 -3 1 25 27 27 26 54 48 60 48 5 0 -6 -14 -25 -31 l-35 -30
37 26 c21 15 36 31 33 35 -8 14 111 80 234 131 64 27 120 48 125 49 5 0 -23
-33 -61 -73z m303 -684 c-6 -7 -152 17 -232 37 -90 23 -234 80 -234 92 0 15
107 205 166 294 62 94 166 209 244 271 l55 43 3 -367 c1 -201 0 -368 -2 -370z
m263 661 c130 -122 240 -272 336 -463 37 -74 44 -96 33 -102 -55 -36 -322 -99
-419 -99 l-49 0 0 370 c0 204 4 370 8 370 5 0 46 -34 91 -76z m829 -143 c61
-45 71 -56 60 -68 -11 -11 -27 0 -95 67 -87 86 -79 86 35 1z m-1979 -28 c-64
-68 -63 -68 -78 -49 -9 11 1 22 56 59 37 25 70 46 72 46 2 1 -20 -25 -50 -56z
m-171 -153 l22 -18 -29 -49 c-16 -26 -55 -92 -86 -145 -46 -81 -60 -98 -80
-98 -55 0 -119 -90 -108 -151 3 -19 -4 -29 -34 -49 -60 -40 -168 -146 -209
-205 -20 -30 -39 -54 -40 -52 -7 6 51 148 101 250 79 158 172 285 306 420 64
64 120 117 125 117 5 -1 19 -9 32 -20z m2423 -57 c201 -208 351 -455 434 -715
35 -109 39 -116 66 -120 17 -3 26 0 22 6 -4 5 1 7 11 3 10 -4 18 -1 20 6 16
54 16 54 31 27 20 -36 19 -7 -5 86 -46 177 -148 410 -244 553 -31 46 -56 85
-56 87 0 6 672 -386 729 -426 22 -15 22 -15 7 -115 -23 -143 -56 -278 -72
-291 -8 -6 -32 -14 -53 -18 -22 -3 -60 -22 -85 -41 -26 -19 -48 -35 -50 -35
-2 0 -49 25 -103 56 -99 56 -318 157 -367 170 -21 5 -26 12 -26 36 0 38 -23
81 -55 105 -19 13 -35 45 -57 108 -49 148 -170 383 -270 527 -10 14 -8 22 12
43 13 14 26 25 30 25 4 0 40 -35 81 -77z m-2172 -140 c50 -34 101 -65 112 -68
14 -5 18 -12 14 -23 -4 -10 -11 -29 -17 -44 -8 -23 -16 -27 -61 -32 -79 -8
-238 -26 -272 -32 -25 -4 -33 0 -46 24 -11 20 -13 34 -7 46 5 9 12 15 16 12 4
-2 24 28 45 66 21 39 32 66 24 60 -7 -6 -24 -34 -37 -62 -13 -27 -25 -48 -28
-46 -9 10 64 130 90 149 16 12 26 27 23 35 -6 16 -1 13 144 -85z m2005 -7 c92
-137 234 -454 219 -492 -8 -20 -19 -17 -171 45 -68 28 -168 65 -222 82 l-99
33 -31 99 c-17 54 -33 104 -36 111 -3 8 34 38 92 77 53 35 116 78 138 96 23
18 44 33 47 33 4 0 32 -38 63 -84z m-364 20 c0 -3 -4 -8 -10 -11 -5 -3 -10 -1
-10 4 0 6 5 11 10 11 6 0 10 -2 10 -4z m25 -96 c3 -5 1 -10 -4 -10 -6 0 -11 5
-11 10 0 6 2 10 4 10 3 0 8 -4 11 -10z m-1326 -76 c2 -2 -10 -4 -27 -4 -18 0
-32 5 -32 10 0 9 47 4 59 -6z m1192 -74 c10 -30 17 -55 16 -56 -2 -3 -206 46
-227 53 -9 4 2 9 25 14 22 4 65 16 95 27 30 11 59 19 64 18 5 -1 17 -27 27
-56z m-1486 -104 c-36 -137 -73 -358 -87 -518 l-12 -138 -115 0 c-64 0 -166 3
-228 7 -106 6 -111 7 -108 27 2 12 6 63 10 114 9 130 67 402 93 437 4 6 28 20
54 32 32 15 54 35 70 61 22 39 23 40 108 51 97 14 234 28 238 25 2 -1 -8 -45
-23 -98z m465 89 c74 -3 172 -8 218 -11 l82 -6 0 -369 0 -369 -347 0 -346 0 7
113 c10 172 51 398 107 590 l20 68 62 -5 c34 -3 123 -8 197 -11z m590 -30
c142 -15 418 -72 459 -95 27 -15 86 -325 97 -508 l7 -109 -228 -6 c-126 -4
-282 -7 -347 -7 l-118 0 0 370 0 370 38 -5 c20 -2 62 -7 92 -10z m-1626 -157
c-7 -29 -23 -87 -34 -128 -24 -85 -60 -313 -60 -377 l0 -43 -120 0 -120 0 0
48 c1 140 76 306 199 435 54 58 126 117 142 117 4 0 1 -24 -7 -52z m3880 -20
c158 -93 240 -171 292 -279 103 -212 76 -458 -71 -649 -46 -60 -92 -101 -180
-162 -60 -41 -127 -80 -130 -76 -1 2 -7 55 -14 119 -7 64 -19 141 -26 170 -20
72 -19 76 10 83 34 9 101 77 119 120 38 90 29 170 -27 252 -28 41 -57 63 -135
101 -2 0 6 31 17 66 11 36 28 118 38 181 10 64 22 116 27 116 6 0 42 -19 80
-42z m-1513 3 c46 -15 144 -52 217 -81 120 -48 132 -55 132 -77 0 -34 33 -78
69 -93 17 -7 33 -20 35 -29 7 -20 28 -243 24 -246 -2 -1 -112 -6 -245 -10
l-241 -7 -7 89 c-11 142 -49 393 -71 466 -7 21 -13 22 87 -12z m680 -281 c50
-22 154 -73 230 -113 105 -54 137 -76 132 -87 -13 -31 -15 -139 -3 -175 l12
-37 -133 -135 c-158 -159 -336 -316 -352 -310 -15 5 -14 18 7 135 9 51 20 141
24 200 l7 107 120 5 c66 4 105 7 88 8 -37 2 -41 9 -15 29 9 8 12 12 5 9 -7 -4
-12 1 -12 11 0 28 -7 69 -15 81 -4 6 5 12 21 15 16 2 -20 5 -79 6 -60 0 -108
5 -108 10 0 33 -22 222 -30 249 -5 18 -5 32 0 32 5 0 50 -18 101 -40z m-3234
-528 c93 -100 102 -113 108 -158 24 -176 75 -361 151 -542 49 -116 70 -155
152 -280 101 -155 19 -119 -165 71 -221 229 -361 523 -408 858 -22 161 -22
159 23 159 35 0 45 -7 139 -108z m83 61 l0 -47 -31 30 c-17 16 -35 37 -40 47
-9 15 -5 17 31 17 l40 0 0 -47z m2946 -30 c-12 -129 -47 -327 -62 -348 -8 -11
-24 -32 -36 -48 -14 -17 -22 -42 -23 -69 -1 -41 -3 -44 -56 -70 -101 -51 -402
-149 -415 -135 -3 3 4 40 15 84 49 190 77 369 88 545 l6 107 136 4 c75 1 185
4 245 5 l108 2 -6 -77z m-2366 10 c0 -68 35 -353 50 -403 21 -71 17 -72 -88
-16 -107 58 -320 197 -376 247 -31 26 -34 34 -25 51 6 11 7 18 1 14 -8 -5 -22
80 -22 140 l0 24 230 0 230 0 0 -57z m858 -304 l2 -356 -86 -10 c-73 -9 -98
-8 -167 8 -82 18 -194 51 -297 87 l-55 19 -27 111 c-32 133 -58 326 -58 428
l0 74 343 -2 342 -3 3 -356z m854 309 c-10 -224 -49 -447 -119 -690 -10 -34
-157 -33 -468 5 l-100 12 -3 363 -2 362 347 0 348 0 -3 -52z m1327 -19 c33
-21 69 -34 101 -37 34 -3 51 -9 54 -21 21 -72 39 -203 40 -285 l1 -98 -290
-170 c-159 -93 -296 -172 -303 -175 -8 -3 0 18 16 48 38 67 95 215 122 312 23
85 62 279 56 284 -2 2 -13 -8 -25 -23 -11 -15 -21 -22 -21 -17 0 9 187 213
195 213 2 0 26 -14 54 -31z m-259 -192 c0 -2 -12 -14 -27 -28 l-28 -24 24 28
c23 25 31 32 31 24z m-3060 -148 c63 -43 162 -103 220 -135 145 -79 150 -83
150 -99 0 -12 59 -203 77 -252 3 -7 0 -13 -6 -13 -16 0 -116 -65 -189 -123
-35 -27 -64 -48 -66 -46 -1 2 -16 22 -32 44 -78 102 -189 332 -227 470 -43
155 -63 243 -53 237 6 -4 63 -41 126 -83z m2920 -63 c-92 -261 -166 -383 -321
-530 -112 -106 -246 -212 -256 -203 -3 4 7 25 23 47 120 167 231 363 263 461
9 30 19 38 51 48 48 14 90 70 90 118 0 26 9 39 48 70 26 20 68 57 94 80 26 24
49 43 51 43 2 0 -17 -60 -43 -134z m-425 -233 c-31 -74 -105 -205 -160 -284
-51 -72 -77 -93 -87 -71 -5 13 -106 84 -185 131 l-71 43 13 30 c15 38 24 42
110 58 81 15 210 56 310 98 39 17 73 31 78 31 4 1 0 -16 -8 -36z m-1827 -27
c105 -34 130 -46 95 -46 -11 0 -52 -11 -92 -25 -52 -17 -73 -21 -76 -12 -31
86 -40 117 -32 117 1 0 48 -15 105 -34z m472 -487 l0 -360 -32 18 c-59 32
-232 214 -290 303 -60 93 -132 223 -142 256 -6 19 2 25 66 52 118 48 280 89
366 91 l32 1 0 -361z m331 335 c103 -19 299 -83 299 -97 0 -20 -113 -223 -168
-302 -64 -91 -184 -215 -254 -263 l-48 -33 0 356 0 355 44 0 c24 0 81 -7 127
-16z m558 -199 c36 -25 83 -60 104 -78 l39 -33 -74 -69 c-147 -137 -326 -253
-514 -333 l-91 -39 107 106 c118 117 206 241 286 404 35 69 53 96 63 92 8 -3
44 -26 80 -50z m-1470 -63 c78 -156 164 -277 273 -384 54 -54 96 -98 93 -98
-3 0 -55 21 -116 46 -175 74 -327 175 -454 303 l-69 71 34 30 c34 29 178 130
186 130 2 0 26 -44 53 -98z"/>
<path d="M2473 9629 c-29 -18 -53 -62 -53 -96 0 -34 35 -86 66 -99 49 -20 79
-17 113 11 64 54 59 142 -11 185 -42 25 -74 25 -115 -1z"/>
<path d="M2480 6137 c-38 -19 -62 -75 -50 -118 13 -47 39 -69 88 -76 31 -4 47
0 71 16 107 76 9 237 -109 178z"/>
<path d="M3429 9283 c-13 -16 -12 -17 4 -4 9 7 17 15 17 17 0 8 -8 3 -21 -13z"/>
<path d="M5882 7655 c0 -16 2 -22 5 -12 2 9 2 23 0 30 -3 6 -5 -1 -5 -18z"/>
<path d="M5872 7570 c0 -19 2 -27 5 -17 2 9 2 25 0 35 -3 9 -5 1 -5 -18z"/>
<path d="M2702 7640 c0 -14 2 -19 5 -12 2 6 2 18 0 25 -3 6 -5 1 -5 -13z"/>
<path d="M2712 7550 c0 -19 2 -27 5 -17 2 9 2 25 0 35 -3 9 -5 1 -5 -18z"/>
<path d="M4707 10222 c-21 -23 -21 -41 -1 -70 30 -43 94 -16 94 41 0 44 -62
64 -93 29z"/>
<path d="M5220 9952 c-33 -33 -40 -46 -40 -78 0 -50 29 -96 73 -117 41 -20 60
-21 90 -6 67 35 98 103 74 161 -21 49 -51 70 -107 76 -47 4 -52 3 -90 -36z"/>
<path d="M5825 9611 c-51 -21 -73 -88 -46 -140 33 -60 141 -57 170 6 38 83
-40 168 -124 134z"/>
<path d="M6706 6594 c-19 -18 -21 -65 -4 -82 20 -20 65 -14 82 10 21 30 20 44
-4 68 -24 24 -53 26 -74 4z"/>
<path d="M4650 4782 c-22 -11 -44 -36 -58 -63 -20 -37 -23 -55 -19 -117 7
-124 54 -162 197 -162 143 0 192 42 194 168 1 95 -16 137 -68 167 -36 21 -55
25 -127 25 -62 0 -93 -5 -119 -18z"/>
<path d="M1350 4725 c-8 -2 -49 -9 -90 -15 -154 -25 -278 -84 -385 -182 -121
-111 -200 -247 -246 -426 -29 -114 -37 -358 -15 -475 37 -195 102 -325 220
-442 127 -126 262 -186 459 -204 213 -20 544 32 648 102 l34 23 3 414 c2 413
2 415 -19 433 -19 15 -50 17 -310 17 -350 0 -329 8 -329 -130 0 -130 -1 -130
190 -130 l150 0 0 -205 0 -204 -37 -11 c-74 -21 -200 -30 -272 -20 -196 28
-320 137 -383 340 -20 64 -23 96 -23 220 1 166 14 232 71 348 103 211 317 299
599 247 100 -18 150 -33 259 -81 67 -28 90 -34 99 -25 8 8 11 48 10 123 -3
100 -5 114 -25 136 -36 39 -180 102 -282 123 -83 18 -290 33 -326 24z"/>
<path d="M3605 4693 c-47 -12 -45 20 -45 -839 0 -801 0 -814 20 -834 19 -19
33 -20 434 -20 l415 0 15 22 c18 26 23 189 6 232 l-10 26 -270 0 -270 0 0 694
c0 632 -1 695 -17 707 -16 14 -235 24 -278 12z"/>
<path d="M2572 4270 c-209 -56 -350 -201 -409 -420 -23 -83 -25 -385 -4 -470
25 -100 85 -214 141 -269 110 -106 297 -156 496 -132 272 33 434 166 506 416
20 71 23 102 23 265 0 166 -2 193 -23 260 -58 186 -170 297 -349 346 -93 26
-292 28 -381 4z m297 -272 c59 -29 103 -94 122 -179 20 -93 18 -308 -4 -381
-45 -145 -150 -220 -286 -204 -160 19 -226 112 -238 336 -13 242 51 396 184
446 54 20 163 11 222 -18z"/>
<path d="M6639 4276 c-272 -58 -420 -264 -436 -612 -15 -315 81 -536 272 -629
91 -44 168 -58 325 -57 195 0 380 38 420 87 17 20 19 200 3 216 -9 9 -34 5
-105 -14 -183 -51 -314 -61 -421 -30 -104 29 -166 115 -175 245 l-5 67 369 0
369 1 19 23 c17 20 18 35 13 167 -6 158 -19 217 -69 312 -55 103 -140 172
-258 209 -84 26 -234 33 -321 15z m224 -240 c67 -28 114 -109 124 -213 l6 -63
-240 0 -240 0 9 56 c25 158 103 234 241 234 37 0 82 -6 100 -14z"/>
<path d="M4627 4248 c-15 -12 -17 -65 -18 -622 0 -495 2 -610 13 -617 15 -10
258 -12 282 -3 14 6 16 69 16 620 0 596 -1 614 -19 624 -29 15 -253 13 -274
-2z"/>
<path d="M5030 4245 c-19 -22 -8 -68 69 -307 38 -117 88 -274 111 -348 44
-142 151 -472 171 -528 19 -55 46 -62 238 -62 162 0 171 1 194 23 13 12 28 38
34 57 7 19 32 100 56 180 25 80 85 269 133 420 127 403 164 523 164 542 0 29
-34 38 -145 38 -121 0 -154 -11 -178 -62 -8 -18 -38 -116 -66 -218 -27 -102
-69 -252 -92 -335 -34 -123 -95 -344 -99 -365 -1 -3 -14 42 -29 100 -15 58
-72 266 -126 464 -82 298 -103 363 -126 387 l-27 29 -135 0 c-108 0 -137 -3
-147 -15z"/>
<path d="M4869 2833 c-12 -13 -14 -177 -13 -980 0 -897 2 -965 18 -981 14 -14
36 -17 127 -17 109 0 111 0 135 28 19 22 24 39 24 84 l0 55 67 -62 c124 -116
266 -157 451 -130 181 26 345 178 418 388 58 169 70 462 24 642 -55 221 -181
368 -354 415 -87 24 -238 17 -314 -14 -58 -23 -156 -86 -186 -120 -11 -11 -22
-21 -25 -21 -3 0 -5 153 -3 341 3 297 1 344 -13 365 -15 24 -17 24 -179 24
-140 0 -166 -2 -177 -17z m740 -912 c92 -47 142 -168 143 -346 1 -275 -108
-429 -292 -412 -101 9 -179 67 -223 166 -18 42 -20 60 -14 233 7 208 14 234
82 303 84 84 205 106 304 56z"/>
<path d="M1773 2743 c-17 -2 -37 -11 -45 -20 -11 -13 -13 -185 -13 -924 0
-859 1 -909 18 -926 16 -16 38 -18 183 -18 162 0 166 1 185 24 18 22 19 44 19
397 l0 374 315 0 315 0 0 -379 c0 -414 -1 -403 57 -417 43 -11 312 2 328 16
13 11 15 133 15 930 0 835 -1 919 -16 931 -23 19 -329 20 -361 1 l-23 -13 0
-359 0 -360 -315 0 -314 0 -3 355 c-3 324 -5 356 -21 372 -15 15 -38 18 -155
19 -75 1 -151 0 -169 -3z"/>
<path d="M3411 2246 c-9 -11 -13 -145 -14 -503 -2 -424 0 -498 15 -565 46
-209 158 -321 351 -349 179 -26 344 36 474 180 l42 46 1 -86 c0 -68 4 -89 17
-100 23 -20 273 -19 297 0 14 12 16 77 16 683 0 442 -4 676 -10 689 -10 18
-23 19 -174 19 -140 0 -166 -2 -177 -17 -11 -13 -15 -103 -19 -452 -6 -487 -1
-459 -80 -540 -54 -56 -119 -84 -191 -84 -72 0 -114 24 -154 88 l-30 48 -5
462 c-4 371 -8 465 -19 478 -11 15 -37 17 -171 17 -124 0 -160 -3 -169 -14z"/>
</g>
</svg>
